<?xml version="1.0" encoding="iso-8859-1"?>
<!-- Generator: Adobe Illustrator 17.0.0, SVG Export Plug-In . SVG Version: 6.00 Build 0)  -->
<!DOCTYPE svg PUBLIC "-//W3C//DTD SVG 1.1//EN" "http://www.w3.org/Graphics/SVG/1.1/DTD/svg11.dtd">
<svg version="1.1" id="Layer_1" xmlns="http://www.w3.org/2000/svg" xmlns:xlink="http://www.w3.org/1999/xlink" x="0px" y="0px"
	 width="300px" height="300px" viewBox="0 0 300 300" style="enable-background:new 0 0 300 300;" xml:space="preserve">
<g>
	<path style="fill:none;stroke:#000000;stroke-width:18;stroke-linecap:round;stroke-linejoin:round;stroke-miterlimit:10;" d="
		M215,232c0,12.1-9.9,22-22,22H55c-12.1,0-22-9.9-22-22V53c0-12.1,9.9-22,22-22h138c12.1,0,22,9.9,22,22V232z"/>
</g>
<g>
	<path style="fill:#FFFFFF;" d="M271,262c0,12.1-9.9,22-22,22H111c-12.1,0-22-9.9-22-22V83c0-12.1,9.9-22,22-22h138
		c12.1,0,22,9.9,22,22V262z"/>
	<path style="fill:none;stroke:#000000;stroke-width:18;stroke-linecap:round;stroke-linejoin:round;stroke-miterlimit:10;" d="
		M271,262c0,12.1-9.9,22-22,22H111c-12.1,0-22-9.9-22-22V83c0-12.1,9.9-22,22-22h138c12.1,0,22,9.9,22,22V262z"/>
</g>
</svg>
